<?xml version="1.0" encoding="UTF-8"?>
<svg id="Layer_2" data-name="Layer 2" xmlns="http://www.w3.org/2000/svg" viewBox="0 0 58.52 58.52">
  <defs>
    <style>
      .cls-1 {
        fill: #121a6b;
      }
    </style>
  </defs>
  <g id="Layer_2-2" data-name="Layer 2">
    <g>
      <path class="cls-1" d="M55.77,37.83v17.94H2.74V2.74h53.03v17.94h2.74V1.71c0-.95-.77-1.71-1.71-1.71H1.71C.77,0,0,.77,0,1.71v55.09c0,.95.77,1.71,1.71,1.71h55.09c.95,0,1.71-.77,1.71-1.71v-18.97h-2.74Z"/>
      <g>
        <path class="cls-1" d="M36.44,15.2h-14.37c-.76,0-1.37.61-1.37,1.37v25.37c0,.76.61,1.37,1.37,1.37h14.37c.76,0,1.37-.61,1.37-1.37v-25.37c0-.76-.61-1.37-1.37-1.37ZM35.07,17.94v17.15h-11.63v-17.15h11.63ZM23.44,40.57v-2.74h11.63v2.74h-11.63Z"/>
        <path class="cls-1" d="M10.97,20.64c-.76,0-1.37.61-1.37,1.37v14.45c0,.76.61,1.37,1.37,1.37s1.37-.61,1.37-1.37v-14.45c0-.76-.61-1.37-1.37-1.37Z"/>
        <path class="cls-1" d="M47.54,20.64c-.76,0-1.37.61-1.37,1.37v14.45c0,.76.61,1.37,1.37,1.37s1.37-.61,1.37-1.37v-14.45c0-.76-.61-1.37-1.37-1.37Z"/>
        <path class="cls-1" d="M16.9,24.36c-.76,0-1.37.61-1.37,1.37v7.05c0,.76.61,1.37,1.37,1.37s1.37-.61,1.37-1.37v-7.05c0-.76-.61-1.37-1.37-1.37Z"/>
        <path class="cls-1" d="M41.62,24.36c-.76,0-1.37.61-1.37,1.37v7.05c0,.76.61,1.37,1.37,1.37s1.37-.61,1.37-1.37v-7.05c0-.76-.61-1.37-1.37-1.37Z"/>
      </g>
    </g>
  </g>
</svg>