<?xml version="1.0" encoding="UTF-8"?>
<svg id="Layer_2" data-name="Layer 2" xmlns="http://www.w3.org/2000/svg" viewBox="0 0 59.52 59.52">
  <defs>
    <style>
      .cls-1 {
        fill: #121a6b;
      }
    </style>
  </defs>
  <g id="Layer_2-2" data-name="Layer 2">
    <g>
      <path class="cls-1" d="M56.73,38.48v18.25H2.79V2.79h53.94v18.25h2.79V1.74c0-.96-.78-1.74-1.74-1.74H1.74C.78,0,0,.78,0,1.74v56.03c0,.96.78,1.74,1.74,1.74h56.03c.96,0,1.74-.78,1.74-1.74v-19.3h-2.79Z"/>
      <path class="cls-1" d="M48.36,31.16c.77,0,1.4-.62,1.4-1.4s-.62-1.4-1.4-1.4h-7.06v-2.28h7.06c.77,0,1.4-.62,1.4-1.4s-.62-1.4-1.4-1.4h-7.06v-3.68c0-.77-.62-1.4-1.4-1.4h-3.68v-7.06c0-.77-.62-1.4-1.4-1.4s-1.4.62-1.4,1.4v7.06h-2.28v-7.06c0-.77-.62-1.4-1.4-1.4s-1.4.62-1.4,1.4v7.06h-2.28v-7.06c0-.77-.62-1.4-1.4-1.4s-1.4.62-1.4,1.4v7.06h-3.68c-.77,0-1.4.62-1.4,1.4v3.68h-7.06c-.77,0-1.4.62-1.4,1.4s.62,1.4,1.4,1.4h7.06v2.28h-7.06c-.77,0-1.4.62-1.4,1.4s.62,1.4,1.4,1.4h7.06v2.28h-7.06c-.77,0-1.4.62-1.4,1.4s.62,1.4,1.4,1.4h7.06v3.68c0,.77.62,1.4,1.4,1.4h3.68v7.06c0,.77.62,1.4,1.4,1.4s1.4-.62,1.4-1.4v-7.06h2.28v7.06c0,.77.62,1.4,1.4,1.4s1.4-.62,1.4-1.4v-7.06h2.28v7.06c0,.77.62,1.4,1.4,1.4s1.4-.62,1.4-1.4v-7.06h3.68c.77,0,1.4-.62,1.4-1.4v-3.68h7.06c.77,0,1.4-.62,1.4-1.4s-.62-1.4-1.4-1.4h-7.06v-2.28h7.06ZM38.51,38.51h-17.5v-17.5h17.5v17.5Z"/>
    </g>
  </g>
</svg>