<?xml version="1.0" encoding="UTF-8"?>
<svg id="Layer_2" xmlns="http://www.w3.org/2000/svg" version="1.1" viewBox="0 0 117.31 25.75">
  <!-- Generator: Adobe Illustrator 30.2.1, SVG Export Plug-In . SVG Version: 2.1.1 Build 1)  -->
  <defs>
    <style>
      .st0 {
        fill: none;
      }

      .st1 {
        fill: #fcfcfc;
      }
    </style>
  </defs>
  <rect class="st1" x="72.36" y="13.02" width="11.51" height="2.3"/>
  <rect class="st1" x="72.36" y="8.41" width="11.51" height="2.3"/>
  <line class="st0" x1="96.02" y1="8.84" x2="90.75" y2="13.02"/>
  <path class="st1" d="M99.28,6.11h-3.26l-8.7,6.9v2.3h8.7v2.3h3.26v-2.3h2.42v-2.3h-2.42v-6.9ZM96.02,13.02h-5.27l5.27-4.18v4.18Z"/>
  <path class="st1" d="M116.08,9.36c0-.56-.14-1.08-.43-1.51s-.69-.8-1.22-1.1c-.53-.29-1.17-.51-1.92-.66-.75-.15-1.59-.23-2.52-.23s-1.79.09-2.54.26c-.76.17-1.41.43-1.96.77s-.99.75-1.33,1.24c-.34.48-.56,1.04-.67,1.67h3.56c.06-.3.16-.57.31-.79.15-.22.35-.41.6-.55.25-.14.54-.25.88-.32.34-.07.71-.11,1.12-.11s.8.03,1.13.09c.33.06.62.15.85.26.24.11.42.26.55.43.13.17.2.38.2.61,0,.15-.02.28-.06.4-.04.12-.1.23-.18.33-.08.1-.19.2-.31.29-.13.09-.28.17-.45.24-.18.08-.38.15-.62.21-.24.07-.5.13-.79.2l-1.54.29c-.73.15-1.37.33-1.93.53-.56.2-1.06.43-1.48.68-.42.25-.78.54-1.07.85-.29.31-.53.66-.7,1.05-.17.39-.3.82-.38,1.28-.08.46-.12.98-.12,1.53v.32h13.02v-2.3h-9.2c.02-.15.06-.37.13-.5s.17-.26.31-.37c.13-.11.28-.21.46-.31.18-.09.38-.19.62-.27.24-.09.49-.17.77-.25.28-.08.59-.15.93-.22l1.62-.31c.52-.11.98-.24,1.39-.37.41-.13.78-.28,1.1-.44.32-.16.6-.34.83-.54.24-.2.43-.42.58-.66s.26-.5.34-.78c.08-.28.11-.6.11-.94"/>
  <path class="st1" d="M68.9,6.11h11.51V.36H1.02v23.01h79.39v-5.75h-11.51V6.11ZM19.96,14.15c0,.62-.16,1.16-.47,1.62-.31.46-.75.85-1.32,1.16s-1.26.54-2.07.7c-.81.16-1.71.24-2.71.24s-1.83-.09-2.62-.26c-.79-.18-1.48-.42-2.07-.75s-1.07-.72-1.45-1.19-.62-.99-.74-1.57h3.55c.06.18.14.34.26.49.12.15.25.28.41.4.16.12.34.23.54.32.2.09.42.17.66.22s.49.1.77.13c.28.03.56.05.85.05.3,0,.59-.01.86-.04.27-.03.52-.06.75-.1.23-.04.44-.09.63-.16s.34-.15.47-.25c.13-.09.22-.2.29-.33.07-.13.11-.25.11-.39v-.02c0-.2-.06-.38-.16-.53-.11-.15-.28-.27-.52-.38s-.54-.19-.9-.26c-.36-.07-.79-.13-1.28-.18l-1.99-.21c-.82-.08-1.55-.21-2.19-.39-.63-.18-1.17-.41-1.6-.7-.43-.29-.76-.63-.98-1.03-.22-.4-.33-.87-.33-1.39v-.02c0-.37.07-.71.22-1.03.14-.32.35-.61.62-.87.27-.26.59-.49.98-.69.38-.2.81-.37,1.27-.5.47-.14.97-.24,1.51-.31.54-.07,1.11-.1,1.71-.1.87,0,1.67.08,2.4.23.74.15,1.38.38,1.94.68.56.3,1.02.67,1.39,1.12.37.44.62.95.77,1.52h-3.57c-.08-.24-.23-.44-.43-.61-.2-.17-.44-.31-.72-.43-.28-.12-.59-.2-.93-.26-.34-.06-.71-.09-1.09-.09-.25,0-.48.01-.72.03-.23.02-.45.05-.66.1-.21.04-.4.1-.58.16-.18.06-.32.14-.45.22s-.22.18-.29.3-.11.24-.11.37h0c0,.18.05.33.14.47.09.13.24.25.46.35s.49.18.83.25c.34.07.76.12,1.25.16l2,.23c.84.09,1.59.22,2.26.38.67.16,1.22.38,1.67.66s.79.61,1.03,1.01c.23.4.35.87.35,1.42v.03h0ZM31.9,9.88c0,.26-.04.49-.13.67-.09.18-.22.33-.39.45-.17.12-.39.21-.65.27-.26.05-.57.08-.92.08h-3.58v-2.94h3.58c.35,0,.66.03.92.09.26.06.48.14.65.26.17.12.3.27.39.45.09.18.13.41.13.68M35.34,9.89c0,.7-.13,1.3-.38,1.78-.25.49-.6.87-1.06,1.16-.46.29-1,.5-1.64.63s-1.34.19-2.11.19h-3.9v3.97h-3.27V6.11h7.17c.77,0,1.48.06,2.11.19.63.13,1.18.34,1.64.63.46.29.81.68,1.06,1.16.25.48.38,1.08.38,1.79M54.9,11.87c0,.4.05.77.14,1.1s.23.64.4.9c.17.27.38.5.62.71.25.2.51.37.81.51.29.14.61.24.95.31.34.07.7.11,1.06.11.41,0,.8-.04,1.18-.11.38-.08.73-.19,1.04-.34.31-.15.58-.34.82-.58.24-.24.42-.51.56-.83h3.48c-.18.68-.48,1.28-.89,1.79-.42.52-.93.95-1.55,1.32-.62.36-1.32.64-2.11.83-.79.19-1.65.29-2.56.29-1.08,0-2.07-.14-2.97-.42-.9-.28-1.67-.68-2.32-1.21s-1.15-1.15-1.51-1.89-.54-1.57-.54-2.5.18-1.77.54-2.5c.36-.73.86-1.36,1.51-1.89.65-.52,1.42-.93,2.32-1.21.9-.28,1.89-.42,2.97-.42.92,0,1.77.1,2.56.29.79.19,1.49.47,2.11.83.62.36,1.13.8,1.55,1.32.42.52.71,1.12.89,1.79h-3.48c-.14-.31-.32-.58-.56-.81s-.51-.42-.82-.58-.66-.27-1.04-.35c-.38-.08-.77-.11-1.18-.11-.37,0-.73.04-1.06.11-.34.07-.65.18-.95.31s-.56.31-.81.51c-.25.2-.45.44-.62.71-.17.27-.3.57-.4.91-.1.34-.14.71-.14,1.1M42.91,8.5l-3.93,9.12h-3.43l5.24-11.51h4.23l5.24,11.51h-3.43l-3.93-9.12h0Z"/>
</svg>