<?xml version="1.0" encoding="UTF-8"?>
<svg id="Layer_2" data-name="Layer 2" xmlns="http://www.w3.org/2000/svg" viewBox="0 0 57.44 57.44">
  <defs>
    <style>
      .cls-1 {
        fill: #121a6b;
      }
    </style>
  </defs>
  <g id="Layer_2-2" data-name="Layer 2">
    <g>
      <path class="cls-1" d="M54.75,37.14v17.61H2.69V2.69h52.06v17.61h2.69V1.68c0-.93-.75-1.68-1.68-1.68H1.68C.75,0,0,.75,0,1.68v54.08c0,.93.75,1.68,1.68,1.68h54.08c.93,0,1.68-.75,1.68-1.68v-18.62h-2.69Z"/>
      <path class="cls-1" d="M28.72,9.42c-10.64,0-19.3,8.66-19.3,19.3s8.66,19.3,19.3,19.3,19.3-8.66,19.3-19.3-8.66-19.3-19.3-19.3ZM12.12,28.72c0-1.32.16-2.6.45-3.83,2.29-.39,4.59-.69,6.86-.91-.14,1.57-.21,3.16-.21,4.74s.07,3.16.22,4.74c-2.37-.22-4.67-.52-6.87-.9-.29-1.23-.45-2.51-.45-3.83ZM22.17,33.68c-.17-1.65-.26-3.31-.26-4.96s.08-3.32.25-4.96c4.38-.3,8.87-.29,13.13,0,.16,1.64.25,3.3.25,4.96s-.09,3.32-.26,4.97c-2.17.14-4.37.21-6.56.21s-4.38-.08-6.56-.22ZM38.01,23.99c2.33.22,4.6.52,6.86.91.29,1.23.45,2.51.45,3.83s-.16,2.6-.45,3.83c-2.22.38-4.49.68-6.87.91.15-1.58.22-3.17.22-4.74s-.07-3.16-.21-4.74ZM43.9,22c-2.04-.32-4.1-.57-6.21-.75-.36-2.52-.91-5-1.63-7.42,3.47,1.72,6.26,4.62,7.84,8.17ZM32.85,12.64c.94,2.72,1.65,5.53,2.1,8.41-4.05-.26-8.29-.26-12.44,0,.45-2.87,1.15-5.69,2.1-8.41,1.32-.34,2.7-.52,4.12-.52s2.81.18,4.12.52ZM21.38,13.83c-.72,2.42-1.27,4.9-1.63,7.42-2.05.18-4.13.43-6.21.75,1.58-3.55,4.37-6.45,7.84-8.17ZM13.54,35.45c2.01.31,4.09.56,6.22.75.36,2.5.9,4.98,1.62,7.42-3.47-1.72-6.26-4.62-7.84-8.17ZM24.59,44.8c-.93-2.74-1.62-5.56-2.07-8.41,2.06.13,4.14.2,6.2.2s4.14-.06,6.2-.19c-.44,2.84-1.14,5.65-2.07,8.39-1.32.34-2.71.52-4.14.52s-2.81-.18-4.14-.52ZM36.06,43.61c.72-2.44,1.26-4.92,1.62-7.41,2.15-.2,4.21-.45,6.22-.76-1.58,3.55-4.37,6.45-7.84,8.17Z"/>
    </g>
  </g>
</svg>