<?xml version="1.0" encoding="UTF-8"?>
<svg id="Layer_2" data-name="Layer 2" xmlns="http://www.w3.org/2000/svg" viewBox="0 0 83.14 83.14">
  <defs>
    <style>
      .cls-1 {
        fill: #fff;
      }
    </style>
  </defs>
  <g id="Layer_2-2" data-name="Layer 2">
    <g>
      <path class="cls-1" d="M79.24,53.75v25.49H3.9V3.9h75.35v25.49h3.9V2.44c0-1.35-1.09-2.44-2.44-2.44H2.44C1.09,0,0,1.09,0,2.44v78.27c0,1.35,1.09,2.44,2.44,2.44h78.27c1.35,0,2.44-1.09,2.44-2.44v-26.96h-3.9Z"/>
      <g>
        <path class="cls-1" d="M62.42,42.89c-.45-.98-1.61-1.4-2.59-.95l-2.94,1.36-3.02-5.3c-1.02-1.79-2.93-2.9-4.99-2.9-1.08,0-1.95.87-1.95,1.95s.87,1.95,1.95,1.95c.66,0,1.28.36,1.61.94l2.86,5-3.44,1.58h-16.67l-3.44-1.58,2.86-5c.33-.58.95-.94,1.61-.94,1.08,0,1.95-.87,1.95-1.95s-.87-1.95-1.95-1.95c-2.06,0-3.97,1.11-4.99,2.9l-3.02,5.3-2.94-1.36c-.98-.45-2.14-.02-2.59.95-.45.98-.02,2.13.95,2.59l2.63,1.21-.55.95c-.82,1.44-1.26,3.08-1.26,4.74v13.26c0,2.12,1.73,3.85,3.85,3.85h1.9c2.12,0,3.85-1.73,3.85-3.85v-1.92h18.93v1.92c0,2.12,1.73,3.85,3.85,3.85h1.9c2.12,0,3.85-1.73,3.85-3.85v-13.26c0-1.66-.44-3.3-1.26-4.74l-.55-.95,2.63-1.21c.98-.45,1.4-1.61.95-2.59ZM55.99,49.58c.49.85.75,1.83.75,2.81v13.22h-1.81v-3.82c0-1.08-.87-1.95-1.95-1.95h-22.82c-1.08,0-1.95.87-1.95,1.95v3.82h-1.81v-13.22c0-.98.26-1.96.75-2.81l.71-1.25,4.13,1.91c.26.12.53.18.82.18h17.52c.28,0,.56-.06.82-.18l4.13-1.91.71,1.25Z"/>
        <path class="cls-1" d="M47.59,33.46c.7-.81.61-2.04-.2-2.75-1.61-1.39-3.66-2.15-5.79-2.15s-4.22.78-5.85,2.2c-.81.71-.89,1.94-.18,2.75.39.44.92.67,1.47.67.46,0,.91-.16,1.28-.48.91-.8,2.08-1.24,3.28-1.24s2.35.43,3.25,1.2c.81.7,2.04.61,2.75-.2Z"/>
        <path class="cls-1" d="M50.46,26.88c.63-.87.43-2.09-.44-2.72-2.46-1.77-5.37-2.71-8.41-2.71s-6.04.96-8.51,2.78c-.87.64-1.05,1.86-.41,2.72.38.52.97.79,1.57.79.4,0,.81-.12,1.15-.38,1.79-1.32,3.94-2.02,6.19-2.02s4.33.68,6.13,1.98c.87.63,2.09.43,2.72-.44Z"/>
        <path class="cls-1" d="M31.51,20.65c.38,0,.76-.11,1.09-.34,2.67-1.81,5.79-2.77,9.02-2.77s6.27.94,8.93,2.71c.89.6,2.11.36,2.7-.54.6-.9.36-2.11-.54-2.7-3.3-2.2-7.14-3.37-11.09-3.37s-7.88,1.19-11.2,3.44c-.89.6-1.12,1.82-.52,2.71.38.56.99.86,1.61.86Z"/>
        <circle class="cls-1" cx="41.57" cy="37.44" r="2.38" transform="translate(-.04 .05) rotate(-.07)"/>
        <rect class="cls-1" x="29.17" y="51.86" width="5.72" height="3.82" rx=".95" ry=".95"/>
        <rect class="cls-1" x="48.25" y="51.86" width="5.72" height="3.82" rx=".95" ry=".95"/>
      </g>
    </g>
  </g>
</svg>