<?xml version="1.0" encoding="UTF-8"?>
<svg id="Layer_2" data-name="Layer 2" xmlns="http://www.w3.org/2000/svg" viewBox="0 0 58.46 58.46">
  <defs>
    <style>
      .cls-1 {
        fill: #121a6b;
      }
    </style>
  </defs>
  <g id="Layer_2-2" data-name="Layer 2">
    <g>
      <path class="cls-1" d="M55.72,37.79v17.93H2.74V2.74h52.98v17.93h2.74V1.71c0-.95-.77-1.71-1.71-1.71H1.71C.77,0,0,.77,0,1.71v55.04c0,.95.77,1.71,1.71,1.71h55.04c.95,0,1.71-.77,1.71-1.71v-18.95h-2.74Z"/>
      <g>
        <path class="cls-1" d="M36.41,22.77c-.96-.96-2.24-1.49-3.6-1.49,0,0,0,0,0,0-1.36,0-2.64.53-3.6,1.49l-5.26,5.29c-.53.54-.53,1.4,0,1.94.54.53,1.4.53,1.94,0l5.26-5.29c.44-.44,1.03-.69,1.66-.69.63,0,1.22.24,1.66.69.92.92.92,2.43,0,3.35l-5.26,5.29c-.53.54-.53,1.4,0,1.94.27.27.62.4.97.4s.7-.13.97-.4l5.26-5.29c1.98-1.99,1.98-5.23,0-7.22Z"/>
        <path class="cls-1" d="M19.67,23.93c.26.26.61.4.97.4s.71-.15.97-.4l1.22-1.23,1.91,1.92c.27.27.62.4.97.4s.7-.13.97-.4c.54-.53.54-1.4,0-1.94l-1.92-1.93,1.23-1.24c.53-.53.53-1.4,0-1.93l-7.57-7.6c-.26-.26-.61-.4-.97-.4s-.71.15-.97.4l-4.39,4.41c-.53.53-.53,1.4,0,1.93l7.57,7.6ZM17.46,12.9l5.63,5.66-2.45,2.46-5.63-5.66,2.45-2.46Z"/>
        <path class="cls-1" d="M49.13,40.84l-7.57-7.6c-.26-.26-.61-.4-.97-.4s-.71.15-.97.4l-1.22,1.23-1.91-1.92c-.53-.54-1.4-.54-1.94,0-.54.53-.54,1.4,0,1.94l1.92,1.93-1.23,1.24c-.53.53-.53,1.4,0,1.93l7.57,7.6c.26.26.61.4.97.4s.71-.15.97-.4l4.39-4.41c.53-.53.53-1.4,0-1.93ZM43.77,44.27l-5.63-5.66,2.45-2.46,5.63,5.66-2.45,2.46Z"/>
        <path class="cls-1" d="M21.52,30.35c-2.02,0-3.93.79-5.36,2.23-.53.53-.53,1.4,0,1.93l3.31,3.33-1.89,1.9c-.53.54-.53,1.4,0,1.94.27.27.62.4.97.4s.7-.13.97-.4l1.88-1.89,3.52,3.54c.26.26.61.4.97.4s.71-.15.97-.4c2.95-2.96,2.95-7.78,0-10.74-1.43-1.44-3.33-2.23-5.36-2.23ZM25.76,40.27l-6.56-6.59c.7-.39,1.49-.59,2.32-.59,1.29,0,2.5.5,3.41,1.42,1.55,1.56,1.83,3.92.83,5.76Z"/>
        <path class="cls-1" d="M17.9,42.63c-.7,0-1.26-.57-1.26-1.27,0-.76-.61-1.37-1.37-1.37s-1.37.61-1.37,1.37c0,2.21,1.8,4.01,4,4.01.76,0,1.37-.61,1.37-1.37s-.61-1.37-1.37-1.37Z"/>
        <path class="cls-1" d="M17.76,46.13c-2.63,0-4.77-2.15-4.77-4.8,0-.76-.61-1.37-1.37-1.37s-1.37.61-1.37,1.37c0,4.16,3.37,7.54,7.51,7.54.76,0,1.37-.61,1.37-1.37s-.61-1.37-1.37-1.37Z"/>
      </g>
    </g>
  </g>
</svg>